<svg width="18" height="16" viewBox="0 0 18 16" fill="none" xmlns="http://www.w3.org/2000/svg">
<path d="M17.7178 4.98942C17.7178 10.4595 9.60648 14.8871 9.26105 15.0699C9.17001 15.1189 9.06824 15.1445 8.96486 15.1445C8.86147 15.1445 8.75971 15.1189 8.66866 15.0699C8.40686 14.9293 3.70215 12.3591 1.4256 8.7489C1.39624 8.70161 1.38003 8.64734 1.37867 8.59169C1.3773 8.53605 1.39082 8.48105 1.41783 8.43237C1.44484 8.3837 1.48435 8.34312 1.5323 8.31483C1.58024 8.28654 1.63487 8.27156 1.69054 8.27145H4.58839C4.69134 8.27151 4.79272 8.24616 4.88352 8.19763C4.97432 8.14909 5.05173 8.07889 5.10887 7.99326L5.83881 6.89925L7.81916 9.8687C7.89504 9.98249 8.00615 10.0683 8.13545 10.1129C8.26475 10.1575 8.40512 10.1584 8.53502 10.1156C8.67283 10.069 8.79075 9.97696 8.86951 9.85463L9.92455 8.27145H11.4657C11.5514 8.27164 11.6362 8.2542 11.7149 8.22023C11.7936 8.18625 11.8645 8.13646 11.9231 8.07395C11.9817 8.01144 12.0269 7.93755 12.0558 7.85686C12.0846 7.77616 12.0966 7.6904 12.0909 7.60488C12.0769 7.4442 12.0027 7.29474 11.8831 7.18648C11.7635 7.07822 11.6075 7.01916 11.4462 7.02115H9.59007C9.48711 7.02109 9.38573 7.04644 9.29493 7.09497C9.20413 7.14351 9.12672 7.21371 9.06958 7.29934L8.33965 8.39335L6.35929 5.4239C6.28337 5.30995 6.17213 5.22407 6.04266 5.17946C5.91319 5.13485 5.77266 5.13397 5.64265 5.17697C5.50518 5.2239 5.3876 5.31586 5.30894 5.43797L4.2539 7.02115H0.800393C0.733583 7.02134 0.668472 7.00012 0.614605 6.9606C0.560738 6.92108 0.52095 6.86535 0.501074 6.80157C0.312508 6.21588 0.214985 5.60471 0.211914 4.98942C0.213362 3.70492 0.724321 2.47345 1.63269 1.56517C2.54106 0.656887 3.77266 0.145979 5.05729 0.144531C6.67112 0.144531 8.08409 0.838445 8.96486 2.01138C9.84562 0.838445 11.2586 0.144531 12.8724 0.144531C14.1571 0.145979 15.3886 0.656887 16.297 1.56517C17.2054 2.47345 17.7164 3.70492 17.7178 4.98942Z" fill="url(#paint0_linear_3_662)"/>
<defs>
<linearGradient id="paint0_linear_3_662" x1="0.211914" y1="12.5583" x2="19.3572" y2="-2.69777" gradientUnits="userSpaceOnUse">
<stop stop-color="#4683D0"/>
<stop offset="1" stop-color="#7CD0A2"/>
</linearGradient>
</defs>
</svg>
