<svg width="24" height="24" viewBox="0 0 24 24" fill="none" xmlns="http://www.w3.org/2000/svg">
<path fill-rule="evenodd" clip-rule="evenodd" d="M10.4189 2C9.07396 2.00012 7.74859 2.32436 6.55332 2.94569C5.35805 3.56702 4.32755 4.46742 3.54778 5.57175C2.76802 6.67609 2.2616 7.95235 2.07079 9.29404C1.87998 10.6357 2.01031 12.004 2.45089 13.2846C2.89148 14.5652 3.62955 15.7211 4.60353 16.6557C5.57752 17.5904 6.75916 18.2768 8.04989 18.6576C9.34061 19.0384 10.703 19.1026 12.0233 18.8449C13.3437 18.5872 14.5838 18.015 15.6401 17.176L19.2638 20.828C19.4509 21.0102 19.7015 21.111 19.9617 21.1087C20.2219 21.1064 20.4707 21.0012 20.6547 20.8158C20.8387 20.6304 20.943 20.3796 20.9453 20.1174C20.9476 19.8552 20.8475 19.6026 20.6668 19.414L17.0431 15.762C18.0234 14.5086 18.6338 13.0024 18.8045 11.4157C18.9751 9.82905 18.699 8.22602 18.0078 6.79009C17.3166 5.35417 16.2383 4.14336 14.8962 3.29623C13.5541 2.44911 12.0025 1.99989 10.4189 2ZM3.96925 10.5C3.96925 8.77609 4.64876 7.12279 5.8583 5.90381C7.06784 4.68482 8.70832 4 10.4189 4C12.1294 4 13.7699 4.68482 14.9794 5.90381C16.189 7.12279 16.8685 8.77609 16.8685 10.5C16.8685 12.2239 16.189 13.8772 14.9794 15.0962C13.7699 16.3152 12.1294 17 10.4189 17C8.70832 17 7.06784 16.3152 5.8583 15.0962C4.64876 13.8772 3.96925 12.2239 3.96925 10.5Z" fill="#8B8E9C"/>
</svg>
